# xmcd
#
# Track frame offsets:
#      150
#      11302
#      20130
#      31587
#      41541
#      52017
#      62718
#      72070
#      86225
#      101356
#      115062
#      125755
#      142480
#      157546
#      173366
#
# Disc length: 2548 seconds
#
# Revision: 0
# Processed by: cddbd v1.5.1PL0 Copyright (c) Steve Scherf et al.
# Submitted via: SoundClick v1.0
#
DISCID=bd09f20f
DTITLE=all sound tracs - BILL HARRIS
DYEAR=1900
DGENRE=
TTITLE0=Monkey See Monkey Do
TTITLE1=I Just Wanna Be With You
TTITLE2=Knowing You
TTITLE3=In The Heart Of Texas
TTITLE4=True Love
TTITLE5=Colorado Kid
TTITLE6=When You Gave Your Love
TTITLE7=He Got Just What I Deserved
TTITLE8=Guitars In Heaven
TTITLE9=There's A River
TTITLE10=Well Done
TTITLE11=Forever And Ever Amen
TTITLE12=All I Have To Offer You Is Me
TTITLE13=Mansion On The Hill
TTITLE14=Cold Cold Heart
EXTD=
EXTT0=
EXTT1=
EXTT2=
EXTT3=
EXTT4=
EXTT5=
EXTT6=
EXTT7=
EXTT8=
EXTT9=
EXTT10=
EXTT11=
EXTT12=
EXTT13=
EXTT14=
PLAYORDER=
